<svg width="120" height="40" viewBox="0 0 120 40" fill="none" xmlns="http://www.w3.org/2000/svg">
  <g>
    <path d="M36.4 34.3L42.5 6.2H50.2L44.1 34.3H36.4ZM60.6 6.6C59.1 6.1 56.5 5.5 53.6 5.5C46.1 5.5 40.8 10.2 40.8 17.2C40.8 22.7 44.6 25.7 49.4 28.3C52.7 30 54.3 31.3 54.3 32.9C54.3 34.2 53.2 35.1 51.4 35.1C49.9 35.1 47.9 34.5 45.8 33.6L44.3 39.3C46.2 40 48.8 40.6 51.7 40.6C59.6 40.6 64.7 35.7 64.7 29.2C64.7 23.8 60.8 20.6 56.1 18.1C53.2 16.6 52.1 15.6 52.1 14.2C52.1 13 53.1 12.2 55.1 12.2C56.8 12.2 59.2 12.7 61 13.4L62.3 7.5C61.9 7.1 61.3 6.8 60.6 6.6ZM88.6 6.2H82.2L73.2 34.3H80.8L82.1 29.3H87.9L89.2 34.3H96.3L88.6 6.2ZM83.4 23.9L85.1 17.3C85.6 15.7 85.8 14.2 85.8 14.2H85.9C85.9 14.2 86.2 15.7 86.8 17.3L88.5 23.9H83.4ZM107.9 6.2C107.3 6.2 106.7 6.7 106.4 7.3L98.4 34.3H105.8L107.1 29.4H113.1L114.3 34.3H121.5L113.5 7.3C113.2 6.7 112.7 6.2 112.1 6.2H107.9ZM109.9 22.2L111.1 16.4C111.3 15.5 111.5 14.4 111.5 14.4H111.6C111.6 14.4 111.8 15.5 112 16.4L113.2 22.2H109.9Z" fill="#1A1F71"/>
    <path d="M24.6 6.2L13.2 26.2L12.1 21.2C12 20.7 11.8 20.2 11.5 19.7C10.7 18.3 8.7 17.2 6.3 17.2H0V18.5C5.8 19.7 9.6 22.9 10.8 26.8L15.6 34.3H23.9L36.4 6.2H24.6Z" fill="#F7A600"/>
  </g>
</svg>